<svg width="256" height="182" xmlns="http://www.w3.org/2000/svg">
 <style type="text/css">.st0{fill:#1592D1;}
	.st1{fill:#003F6C;}
	.st2{fill:#034C7A;}</style>

 <g>
  <title>background</title>
  <rect fill="none" id="canvas_background" height="402" width="582" y="-1" x="-1"/>
 </g>
 <g>
  <title>Layer 1</title>
  <g stroke="null" id="svg_1">
   <path stroke="null" id="svg_2" d="m229.010721,98.935746l-94.684794,-94.684794c0,0 -6.325924,-6.325924 -12.651847,0l-94.684794,94.684794c0,0 -6.325924,6.325924 0,12.651847l68.972975,68.972975c0.612186,-0.204062 1.02031,-0.612186 1.428434,-0.816248c12.447785,-7.754358 14.488406,-45.301776 14.488406,-63.055175l-9.794979,0c-0.612186,-2.040621 -1.02031,-4.285303 -1.02031,-6.734048c0,-2.448745 0.408124,-4.693427 1.02031,-6.734048l9.590917,0c-2.448745,-18.569647 -10.203103,-27.956502 -11.427475,-29.588998c-1.632496,-2.040621 -2.448745,-3.060931 -0.816248,-5.305613c1.632496,-2.040621 4.285303,-5.9178 19.794019,-6.93811c1.224372,0 2.244683,-1.02031 2.244683,-2.448745l0,-5.101551c0,-0.408124 -0.204062,-0.612186 -0.612186,-0.612186l-10.407165,0c-0.408124,0 -0.816248,-0.408124 -0.816248,-0.816248l0,-11.223413c0,-0.408124 0.408124,-0.816248 0.816248,-0.816248l10.407165,0c0.408124,0 0.612186,-0.204062 0.612186,-0.612186l0,-9.794979c0,-0.612186 0.612186,-1.224372 1.224372,-1.224372l5.305613,0l5.305613,0c0.612186,0 1.224372,0.612186 1.224372,1.224372l0,9.794979c0,0.408124 0.204062,0.612186 0.612186,0.612186l10.407165,0c0.408124,0 0.816248,0.408124 0.816248,0.816248l0,11.223413c0,0.408124 -0.408124,0.816248 -0.816248,0.816248l-10.407165,0c-0.408124,0 -0.612186,0.204062 -0.612186,0.612186l0,5.101551c0,1.224372 1.02031,2.244683 2.244683,2.448745c15.304654,1.02031 17.957461,4.897489 19.794019,6.93811c1.836558,2.244683 0.816248,3.264993 -0.816248,5.305613c-1.224372,1.632496 -8.97873,11.223413 -11.427475,29.588998l9.590917,0c0.612186,2.040621 1.02031,4.285303 1.02031,6.734048c0,2.448745 -0.408124,4.693427 -1.02031,6.734048l-9.794979,0c0,17.753399 2.040621,55.300817 14.488406,63.055175c0.408124,0.204062 1.02031,0.612186 1.428434,0.816248l68.972975,-68.972975c0,0 6.325924,-6.325924 0,-12.651847" class="st1"/>
   <path stroke="null" id="svg_3" d="m121.470018,39.553688l0,-9.590917c0,-0.612186 0.612186,-1.224372 1.224372,-1.224372l5.305613,0l5.305613,0c0.612186,0 1.224372,0.612186 1.224372,1.224372l0,9.794979c0,0.408124 0.204062,0.612186 0.612186,0.612186l1.836558,0l10.407165,-10.407165l-19.385895,-19.385895l-19.181833,19.181833l10.407165,10.407165l1.632496,0c0.408124,0 0.612186,-0.204062 0.612186,-0.612186" class="st2"/>
   <path stroke="null" id="svg_4" d="m121.470018,58.939583l0,-3.469055l-6.121862,6.121862c1.224372,-0.204062 2.448745,-0.204062 3.877179,-0.408124c1.224372,0 2.244683,-1.02031 2.244683,-2.244683" class="st2"/>
   <path stroke="null" id="svg_5" d="m136.57061,61.388328c1.428434,0.204062 2.856869,0.204062 4.081241,0.408124l-6.325924,-6.325924l0,3.469055c0,1.224372 1.02031,2.244683 2.244683,2.448745" class="st2"/>
   <path stroke="null" id="svg_6" d="m145.753402,146.278143l1.428434,-1.428434l-1.836558,-1.836558c0.204062,1.224372 0.408124,2.244683 0.408124,3.264993" class="st2"/>
   <path stroke="null" id="svg_7" d="m108.81817,144.849708l1.224372,1.224372c0.204062,-1.02031 0.204062,-1.836558 0.408124,-2.856869l-1.632496,1.632496z" class="st2"/>
   <path stroke="null" id="svg_8" d="m156.364629,68.326438c1.836558,2.244683 0.816248,3.264993 -0.816248,5.305613c-0.204062,0.408124 -0.612186,0.816248 -1.224372,1.836558l12.039661,12.039661l19.181833,-19.181833l-19.181833,-19.181833l-15.304654,15.304654c3.264993,1.224372 4.489365,2.652807 5.305613,3.877179" class="st2"/>
   <path stroke="null" id="svg_9" d="m150.446829,103.221049l3.264993,0c0.612186,2.040621 1.02031,4.285303 1.02031,6.734048c0,1.428434 -0.204062,2.652807 -0.408124,3.877179l11.835599,11.835599l19.181833,-19.181833l-19.181833,-19.181833l-15.712778,15.91684z" class="st2"/>
   <rect stroke="null" id="svg_10" height="13.3" width="13.3" class="st2" transform="matrix(-1.4429227907321516,1.4429227907321516,-1.4429227907321516,-1.4429227907321516,480.1736419393505,-58.841293881897435) " y="31.524263" x="172.646885"/>
   <path stroke="null" id="svg_11" d="m100.247564,73.632051c-1.632496,-2.040621 -2.448745,-3.060931 -0.816248,-5.305613c0.816248,-1.02031 2.040621,-2.652807 5.305613,-4.081241l-15.100592,-15.100592l-19.181833,19.181833l19.181833,19.181833l12.039661,-12.039661c-0.612186,-1.02031 -1.224372,-1.632496 -1.428434,-1.836558" class="st2"/>
   <path stroke="null" id="svg_12" d="m101.063812,109.955097c0,-2.448745 0.408124,-4.693427 1.02031,-6.734048l3.469055,0l-15.91684,-15.91684l-19.181833,19.181833l19.181833,19.181833l11.835599,-11.835599c-0.204062,-1.224372 -0.408124,-2.448745 -0.408124,-3.877179" class="st2"/>
   <rect stroke="null" id="svg_13" height="13.3" width="13.3" class="st2" transform="matrix(-1.4429227907321516,-1.4429227907321516,1.4429227907321516,-1.4429227907321516,143.42146008827018,310.52939120880546) " y="32.153115" x="69.424263"/>
   <rect stroke="null" id="svg_14" height="13.3" width="13.3" class="st2" transform="matrix(-1.4429227907321516,-1.4429227907321516,1.4429227907321516,-1.4429227907321516,105.06330342835011,217.93725407392213) " y="13.353115" x="50.624263"/>
   <rect stroke="null" id="svg_15" height="13.3" width="13.3" class="st2" transform="matrix(1.4429227907321516,-1.4429227907321516,1.4429227907321516,1.4429227907321516,-110.93107614984581,174.8317977670508) " y="79.075737" x="126.353115"/>
  </g>
 </g>
</svg>